<svg width="340" height="100" viewBox="0 0 340 100" fill="none" xmlns="http://www.w3.org/2000/svg">
<path fill-rule="evenodd" clip-rule="evenodd" d="M14.1422 35.8579L35.8579 14.1422C43.6684 6.33169 56.3317 6.33169 64.1422 14.1422L70 20L40 50L70 80L64.1422 85.8579C56.3317 93.6684 43.6684 93.6684 35.8579 85.8579L14.1422 64.1422C6.3317 56.3317 6.33169 43.6684 14.1422 35.8579ZM125.858 64.1422L104.142 85.8579C96.3317 93.6684 83.6684 93.6684 75.8579 85.8579L70 80L100 50L70.0001 20L75.8579 14.1422C83.6684 6.3317 96.3317 6.33169 104.142 14.1422L125.858 35.8579C133.668 43.6684 133.668 56.3317 125.858 64.1422ZM150 18.3055V75.4255H157.2V18.3055H150ZM163.814 37.4255V75.4255H171.014V37.4255H163.814ZM204.505 53.2655V75.4255H211.705V51.8255C211.705 49.2122 211.065 46.7588 209.785 44.4655C208.505 42.1188 206.745 40.2255 204.505 38.7855C202.318 37.3455 199.785 36.6255 196.905 36.6255C194.025 36.6255 191.438 37.2921 189.145 38.6255C187.418 39.5897 185.978 40.8262 184.825 42.3351V37.4255H177.625V75.4255H184.825V53.2655C184.825 51.3455 185.252 49.6388 186.105 48.1455C186.958 46.6521 188.132 45.4788 189.625 44.6255C191.118 43.7721 192.825 43.3455 194.745 43.3455C197.625 43.3455 199.972 44.2788 201.785 46.1455C203.598 48.0121 204.505 50.3855 204.505 53.2655ZM222.813 89.9855C225.853 91.4255 229.32 92.1455 233.213 92.1455C237.16 92.1455 240.626 91.3722 243.613 89.8255C246.653 88.2788 249 86.1455 250.653 83.4255C252.36 80.7055 253.213 77.5322 253.213 73.9055V37.4255H246.013V42.5163C244.747 40.779 243.12 39.4021 241.133 38.3855C238.84 37.2121 236.2 36.6255 233.213 36.6255C229.747 36.6255 226.626 37.4788 223.853 39.1855C221.133 40.8388 218.973 43.1055 217.373 45.9855C215.773 48.8121 214.973 52.0388 214.973 55.6655C214.973 59.2921 215.773 62.5722 217.373 65.5055C218.973 68.3855 221.133 70.6521 223.853 72.3055C226.626 73.9588 229.747 74.7855 233.213 74.7855C236.146 74.7855 238.76 74.1988 241.053 73.0255C243.082 71.9873 244.736 70.5943 246.013 68.8464V73.9055C246.013 77.3721 244.867 80.1188 242.573 82.1455C240.333 84.2255 237.267 85.2655 233.373 85.2655C230.44 85.2655 227.907 84.7321 225.773 83.6655C223.64 82.6521 221.8 81.1588 220.253 79.1855L215.613 83.9055C217.426 86.5188 219.827 88.5455 222.813 89.9855ZM240.813 66.4655C239.053 67.4788 237 67.9855 234.653 67.9855C232.253 67.9855 230.12 67.4788 228.253 66.4655C226.44 65.3988 225 63.9322 223.933 62.0655C222.92 60.1988 222.413 58.0655 222.413 55.6655C222.413 53.2655 222.92 51.1588 223.933 49.3455C225 47.4788 226.44 46.0388 228.253 45.0255C230.066 43.9588 232.173 43.4255 234.573 43.4255C236.973 43.4255 239.053 43.9588 240.813 45.0255C242.573 46.0388 243.933 47.4788 244.893 49.3455C245.907 51.1588 246.413 53.2921 246.413 55.7455C246.413 58.1988 245.933 60.3588 244.973 62.2255C244.013 64.0388 242.626 65.4521 240.813 66.4655ZM266.661 74.1455C269.168 75.5322 271.968 76.2255 275.061 76.2255C278.315 76.2255 281.141 75.5322 283.541 74.1455C285.995 72.7055 287.915 70.7322 289.301 68.2255C290.688 65.7188 291.381 62.8121 291.381 59.5055V37.4255H284.181V59.1855C284.181 62.3321 283.381 64.8121 281.781 66.6255C280.181 68.3855 277.968 69.2655 275.141 69.2655C273.275 69.2655 271.648 68.8655 270.261 68.0655C268.875 67.2655 267.808 66.1188 267.061 64.6255C266.368 63.0788 266.021 61.2655 266.021 59.1855V37.4255H258.821V59.5055C258.821 62.8121 259.515 65.7188 260.901 68.2255C262.288 70.7322 264.208 72.7055 266.661 74.1455ZM303.751 73.6655C306.578 75.3721 309.725 76.2255 313.191 76.2255C316.125 76.2255 318.711 75.6388 320.951 74.4655C322.938 73.4027 324.565 71.9995 325.831 70.2561V75.4255H333.111V37.4255H325.831V42.6229C324.522 40.8731 322.868 39.4873 320.871 38.4655C318.631 37.2388 316.071 36.6255 313.191 36.6255C309.671 36.6255 306.498 37.5055 303.671 39.2655C300.898 41.0255 298.685 43.3988 297.031 46.3855C295.431 49.3722 294.631 52.7321 294.631 56.4655C294.631 60.1988 295.431 63.5588 297.031 66.5455C298.685 69.5322 300.925 71.9055 303.751 73.6655ZM323.031 65.8255C320.845 68.2255 317.965 69.4255 314.391 69.4255C311.991 69.4255 309.858 68.8655 307.991 67.7455C306.125 66.6255 304.658 65.1055 303.591 63.1855C302.578 61.2122 302.071 58.9455 302.071 56.3855C302.071 53.8788 302.578 51.6655 303.591 49.7455C304.658 47.7721 306.098 46.2255 307.911 45.1055C309.778 43.9855 311.911 43.4255 314.311 43.4255C316.711 43.4255 318.818 43.9855 320.631 45.1055C322.445 46.1721 323.831 47.6921 324.791 49.6655C325.805 51.5855 326.311 53.8521 326.311 56.4655C326.311 60.2521 325.218 63.3722 323.031 65.8255ZM169.481 22.1307C168.31 20.9592 166.41 20.9592 165.238 22.1307L162.637 24.7322C161.465 25.9038 161.465 27.8033 162.637 28.9748L165.238 31.5763C166.41 32.7478 168.31 32.7478 169.481 31.5763L172.083 28.9748C173.254 27.8033 173.254 25.9038 172.083 24.7322L169.481 22.1307Z" fill="#DBB904" style="fill:#DBB904;fill:color(display-p3 0.8583 0.7253 0.0143);fill-opacity:1;"/>
</svg>
