<svg width="282" height="81" viewBox="0 0 282 81" fill="none" xmlns="http://www.w3.org/2000/svg">
<path fill-rule="evenodd" clip-rule="evenodd" d="M25.5001 25.5001L25.5002 50.4999L50.4999 50.5C50.4999 64.3071 39.3071 75.5 25.5 75.5C11.6929 75.5 0.500028 64.3071 0.500031 50.5C0.500031 36.6929 11.6928 25.5 25.4999 25.4999L25.5001 25.5001ZM25.5001 25.5001C25.5001 11.6929 36.693 0.500031 50.5001 0.500031C64.3072 0.500031 75.5001 11.6929 75.5001 25.5C75.5001 39.3071 64.3072 50.5 50.5 50.5H50.4999V50.4999L25.5001 25.5001ZM98 6.30548V63.4255H105.2V6.30548H98ZM111.814 25.4255V63.4255H119.014V25.4255H111.814ZM152.505 41.2655V63.4255H159.705V39.8255C159.705 37.2122 159.065 34.7588 157.785 32.4655C156.505 30.1188 154.745 28.2255 152.505 26.7855C150.318 25.3455 147.785 24.6255 144.905 24.6255C142.025 24.6255 139.438 25.2922 137.145 26.6255C135.418 27.5897 133.978 28.8262 132.825 30.3351V25.4255H125.625V63.4255H132.825V41.2655C132.825 39.3455 133.252 37.6388 134.105 36.1455C134.958 34.6521 136.132 33.4788 137.625 32.6255C139.118 31.7721 140.825 31.3455 142.745 31.3455C145.625 31.3455 147.972 32.2788 149.785 34.1455C151.598 36.0121 152.505 38.3855 152.505 41.2655ZM170.813 77.9855C173.853 79.4255 177.32 80.1455 181.213 80.1455C185.16 80.1455 188.626 79.3722 191.613 77.8255C194.653 76.2788 197 74.1455 198.653 71.4255C200.36 68.7055 201.213 65.5322 201.213 61.9055V25.4255H194.013V30.5163C192.747 28.779 191.12 27.4021 189.133 26.3855C186.84 25.2122 184.2 24.6255 181.213 24.6255C177.746 24.6255 174.626 25.4788 171.853 27.1855C169.133 28.8388 166.973 31.1055 165.373 33.9855C163.773 36.8121 162.973 40.0388 162.973 43.6655C162.973 47.2921 163.773 50.5722 165.373 53.5055C166.973 56.3855 169.133 58.6521 171.853 60.3055C174.626 61.9588 177.746 62.7855 181.213 62.7855C184.146 62.7855 186.76 62.1988 189.053 61.0255C191.082 59.9873 192.736 58.5943 194.013 56.8464V61.9055C194.013 65.3721 192.866 68.1188 190.573 70.1455C188.333 72.2255 185.266 73.2655 181.373 73.2655C178.44 73.2655 175.906 72.7322 173.773 71.6655C171.64 70.6522 169.8 69.1588 168.253 67.1855L163.613 71.9055C165.426 74.5188 167.826 76.5455 170.813 77.9855ZM188.813 54.4655C187.053 55.4788 185 55.9855 182.653 55.9855C180.253 55.9855 178.12 55.4788 176.253 54.4655C174.44 53.3988 173 51.9322 171.933 50.0655C170.92 48.1988 170.413 46.0655 170.413 43.6655C170.413 41.2655 170.92 39.1588 171.933 37.3455C173 35.4788 174.44 34.0388 176.253 33.0255C178.066 31.9588 180.173 31.4255 182.573 31.4255C184.973 31.4255 187.053 31.9588 188.813 33.0255C190.573 34.0388 191.933 35.4788 192.893 37.3455C193.906 39.1588 194.413 41.2921 194.413 43.7455C194.413 46.1988 193.933 48.3588 192.973 50.2255C192.013 52.0388 190.626 53.4521 188.813 54.4655ZM214.661 62.1455C217.168 63.5322 219.968 64.2255 223.061 64.2255C226.315 64.2255 229.141 63.5322 231.541 62.1455C233.995 60.7055 235.915 58.7322 237.301 56.2255C238.688 53.7188 239.381 50.8121 239.381 47.5055V25.4255H232.181V47.1855C232.181 50.3321 231.381 52.8121 229.781 54.6255C228.181 56.3855 225.968 57.2655 223.141 57.2655C221.275 57.2655 219.648 56.8655 218.261 56.0655C216.875 55.2655 215.808 54.1188 215.061 52.6255C214.368 51.0788 214.021 49.2655 214.021 47.1855V25.4255H206.821V47.5055C206.821 50.8121 207.515 53.7188 208.901 56.2255C210.288 58.7322 212.208 60.7055 214.661 62.1455ZM251.751 61.6655C254.578 63.3722 257.725 64.2255 261.191 64.2255C264.125 64.2255 266.711 63.6388 268.951 62.4655C270.938 61.4027 272.565 59.9995 273.831 58.2561V63.4255H281.111V25.4255H273.831V30.6229C272.522 28.8731 270.868 27.4873 268.871 26.4655C266.631 25.2388 264.071 24.6255 261.191 24.6255C257.671 24.6255 254.498 25.5055 251.671 27.2655C248.898 29.0255 246.685 31.3988 245.031 34.3855C243.431 37.3722 242.631 40.7322 242.631 44.4655C242.631 48.1988 243.431 51.5588 245.031 54.5455C246.685 57.5322 248.925 59.9055 251.751 61.6655ZM271.031 53.8255C268.845 56.2255 265.965 57.4255 262.391 57.4255C259.991 57.4255 257.858 56.8655 255.991 55.7455C254.125 54.6255 252.658 53.1055 251.591 51.1855C250.578 49.2122 250.071 46.9455 250.071 44.3855C250.071 41.8788 250.578 39.6655 251.591 37.7455C252.658 35.7722 254.098 34.2255 255.911 33.1055C257.778 31.9855 259.911 31.4255 262.311 31.4255C264.711 31.4255 266.818 31.9855 268.631 33.1055C270.445 34.1721 271.831 35.6922 272.791 37.6655C273.805 39.5855 274.311 41.8521 274.311 44.4655C274.311 48.2521 273.218 51.3722 271.031 53.8255ZM119 6C115.134 6 112 9.13401 112 13V20H119C122.866 20 126 16.866 126 13C126 9.13401 122.866 6 119 6Z" fill="#DBB904" style="fill:#DBB904;fill:color(display-p3 0.8583 0.7253 0.0143);fill-opacity:1;"/>
</svg>
